<?xml version="1.0" encoding="iso-8859-1"?>
<svg version="1.1" id="Capa_1" xmlns="http://www.w3.org/2000/svg" xmlns:xlink="http://www.w3.org/1999/xlink" x="0px" y="0px"
	 viewBox="0 0 512 512" xml:space="preserve">
<g>
	<g>
		<path fill="#fdf5eb" d="M503.467,392.533H8.533c-4.71,0-8.533,3.823-8.533,8.533s3.823,8.533,8.533,8.533h494.933c4.71,0,8.533-3.823,8.533-8.533
			S508.177,392.533,503.467,392.533z"/>
	</g>
</g>
<g>
	<g>
		<path fill="#fdf5eb" d="M290.133,494.933H119.467c-4.71,0-8.533,3.823-8.533,8.533s3.823,8.533,8.533,8.533h170.667
			c4.71,0,8.533-3.823,8.533-8.533S294.844,494.933,290.133,494.933z"/>
	</g>
</g>
<g>
	<g>
		<path fill="#fdf5eb" d="M401.067,494.933h-76.8c-4.71,0-8.533,3.823-8.533,8.533s3.823,8.533,8.533,8.533h76.8c4.71,0,8.533-3.823,8.533-8.533
			S405.777,494.933,401.067,494.933z"/>
	</g>
</g>
<g>
	<g>
		<path fill="#fdf5eb" d="M443.733,443.733H179.2c-4.71,0-8.533,3.823-8.533,8.533c0,4.71,3.823,8.533,8.533,8.533h264.533
			c4.71,0,8.533-3.823,8.533-8.533C452.267,447.556,448.444,443.733,443.733,443.733z"/>
	</g>
</g>
<g>
	<g>
		<path fill="#fdf5eb" d="M145.067,443.733H85.333c-4.71,0-8.533,3.823-8.533,8.533c0,4.71,3.823,8.533,8.533,8.533h59.733
			c4.71,0,8.533-3.823,8.533-8.533C153.6,447.556,149.777,443.733,145.067,443.733z"/>
	</g>
</g>
<g>
	<g>
		<path fill="#fdf5eb" d="M390.033,190.234c-3.328-3.337-8.738-3.337-12.066,0l-25.6,25.6c-3.337,3.337-3.337,8.73,0,12.066
			c1.664,1.664,3.849,2.5,6.033,2.5c2.185,0,4.369-0.836,6.033-2.5l25.6-25.6C393.37,198.963,393.37,193.57,390.033,190.234z"/>
	</g>
</g>
<g>
	<g>
		<path fill="#fdf5eb" d="M159.633,215.834l-25.6-25.6c-3.328-3.337-8.738-3.337-12.066,0c-3.336,3.336-3.336,8.73,0,12.066l25.6,25.6
			c1.664,1.664,3.849,2.5,6.033,2.5c2.185,0,4.369-0.836,6.033-2.5C162.97,224.563,162.97,219.17,159.633,215.834z"/>
	</g>
</g>
<g>
	<g>
		<path fill="#fdf5eb" d="M212.634,192.905l-25.6-59.733c-1.86-4.326-6.878-6.349-11.204-4.48c-4.326,1.852-6.34,6.869-4.48,11.204l25.6,59.733
			c1.391,3.226,4.54,5.171,7.851,5.171c1.126,0,2.261-0.222,3.354-0.691C212.48,202.257,214.494,197.239,212.634,192.905z"/>
	</g>
</g>
<g>
	<g>
		<path fill="#fdf5eb" d="M336.171,128.683c-4.326-1.852-9.344,0.162-11.204,4.48l-25.6,59.733c-1.86,4.335,0.145,9.353,4.48,11.204
			c1.092,0.478,2.236,0.7,3.354,0.7c3.302,0,6.46-1.937,7.851-5.18l25.6-59.733C342.511,135.552,340.506,130.534,336.171,128.683z"
			/>
	</g>
</g>
<g>
	<g>
		<path fill="#fdf5eb" d="M256,68.267c-4.71,0-8.533,3.823-8.533,8.533v59.733c0,4.71,3.823,8.533,8.533,8.533s8.533-3.823,8.533-8.533V76.8
			C264.533,72.09,260.71,68.267,256,68.267z"/>
	</g>
</g>
<g>
	<g>
		<path fill="#fdf5eb" d="M256,162.133c-4.71,0-8.533,3.823-8.533,8.533v17.067c0,4.71,3.823,8.533,8.533,8.533s8.533-3.823,8.533-8.533v-17.067
			C264.533,165.956,260.71,162.133,256,162.133z"/>
	</g>
</g>
<g>
	<g>
		<path fill="#fdf5eb" d="M474.385,25.788C467.755,10.445,452.446,0,435.2,0s-32.555,10.445-39.185,25.788
			C376.021,23.697,358.4,39.757,358.4,59.733c0,18.825,15.309,34.133,34.133,34.133h85.333c18.825,0,34.133-15.309,34.133-34.133
			C512,39.757,494.404,23.706,474.385,25.788z M477.867,76.8h-85.333c-9.412,0-17.067-7.654-17.067-17.067
			s7.654-17.067,17.067-17.067c2.005,0,4.07,0.401,6.127,1.203c2.347,0.905,4.975,0.734,7.185-0.478
			c2.21-1.212,3.772-3.337,4.267-5.803c2.389-11.887,12.937-20.523,25.088-20.523c12.151,0,22.699,8.636,25.079,20.523
			c0.503,2.466,2.057,4.591,4.267,5.803c2.21,1.212,4.838,1.382,7.185,0.478c11.776-4.548,23.202,4.446,23.202,15.863
			C494.933,69.146,487.279,76.8,477.867,76.8z"/>
	</g>
</g>
<g>
	<g>
		<path fill="#fdf5eb" d="M115.985,68.454c-6.63-15.343-21.939-25.788-39.185-25.788c-17.246,0-32.555,10.445-39.185,25.788
			C17.613,66.313,0,82.423,0,102.4c0,18.825,15.309,34.133,34.133,34.133h85.333c18.825,0,34.133-15.309,34.133-34.133
			C153.6,82.423,136.03,66.321,115.985,68.454z M119.467,119.467H34.133c-9.412,0-17.067-7.654-17.067-17.067
			c0-9.412,7.654-17.067,17.067-17.067c2.005,0,4.07,0.401,6.127,1.203c2.347,0.904,4.975,0.734,7.185-0.478
			c2.21-1.212,3.772-3.337,4.267-5.803C54.101,68.369,64.649,59.733,76.8,59.733c12.151,0,22.699,8.636,25.079,20.523
			c0.503,2.466,2.057,4.599,4.267,5.803c2.21,1.203,4.838,1.374,7.185,0.478c11.785-4.548,23.202,4.446,23.202,15.863
			C136.533,111.812,128.879,119.467,119.467,119.467z"/>
	</g>
</g>
<g>
	<g>
		<path fill="#fdf5eb" d="M256,213.333c-84.693,0-153.6,68.907-153.6,153.6c0,11.759,1.493,23.919,4.446,36.139
			c0.922,3.831,4.352,6.528,8.294,6.528H396.86c3.942,0,7.373-2.697,8.294-6.528c2.953-12.22,4.446-24.38,4.446-36.139
			C409.6,282.24,340.693,213.333,256,213.333z M389.99,392.533H122.01c-1.69-8.687-2.543-17.263-2.543-25.6
			C119.467,291.652,180.71,230.4,256,230.4s136.533,61.252,136.533,136.533C392.533,375.27,391.68,383.846,389.99,392.533z"/>
	</g>
</g>
<g>
	<g>
		<path fill="#fdf5eb" d="M255.974,247.467c-23.902,0-45.559,6.212-64.358,18.449c-3.951,2.569-5.069,7.851-2.5,11.802
			c1.638,2.517,4.369,3.883,7.159,3.883c1.596,0,3.209-0.444,4.642-1.382c15.991-10.411,34.517-15.684,55.057-15.684
			c0.008,0,0.026,0,0.026,0c4.71,0,8.533-3.823,8.533-8.533C264.533,251.273,260.787,247.356,255.974,247.467z"/>
	</g>
</g>
<g>
	<g>
		<path fill="#fdf5eb" d="M166.537,299.896c-4.036-2.432-9.284-1.135-11.716,2.901c-11.452,19.029-18.287,42.999-18.287,64.137
			c0,4.71,3.823,8.533,8.533,8.533c4.71,0,8.533-3.823,8.533-8.533c0-17.894,6.067-39.1,15.846-55.322
			C171.878,307.567,170.573,302.328,166.537,299.896z"/>
	</g>
</g>
<g>
</g>
<g>
</g>
<g>
</g>
<g>
</g>
<g>
</g>
<g>
</g>
<g>
</g>
<g>
</g>
<g>
</g>
<g>
</g>
<g>
</g>
<g>
</g>
<g>
</g>
<g>
</g>
<g>
</g>
</svg>
